# AST/ASF file generated using VICON BodyLanguage
# -----------------------------------------------
:version 1.10
:name VICON
:units
  mass 1.0
  length 0.45
  angle deg
:documentation
   .ast/.asf automatically generated from VICON data using
   VICON BodyBuilder and BodyLanguage model FoxedUp or BRILLIANT.MOD
:root
   order TX TY TZ RX RY RZ
   axis XYZ
   position 0 0 0  
   orientation 0 -0 0 
:bonedata
  begin
     id 1 
     name lhipjoint
     direction 0.432694 -0.693742 0.575759 
     length 2.19277 
     axis 0 -0 0  XYZ
  end
  begin
     id 2 
     name lfemur
     direction 0.34202 -0.939693 0  
     length 6.69022  
     axis 0 -0 20  XYZ
    dof rx ry rz
    limits (-160.0 20.0)
           (-70.0 70.0)
           (-60.0 70.0)
  end
  begin
     id 3 
     name ltibia
     direction 0.34202 -0.939693 0   
     length 6.50337   
     axis 0 -0 20   XYZ
    dof rx
    limits (-10.0 170.0)
  end
  begin
     id 4 
     name lfoot
     direction 0.158999 -0.435969 0.885805   
     length 2.70564   
     axis -90 -1.13533e-015 20   XYZ
    dof rx rz
    limits (-45.0 90.0)
           (-70.0 20.0)
  end
  begin
     id 5 
     name ltoes
     direction -0.00592919 0.00964381 0.999936   
     length 1.29929   
     axis -90 -1.13533e-015 20   XYZ
    dof rx
    limits (-90.0 20.0)
  end
  begin
     id 6 
     name rhipjoint
     direction -0.414359 -0.700339 0.581234   
     length 2.17212  
     axis 0 -0 0  XYZ 
  end
  begin
     id 7 
     name rfemur
     direction -0.34202 -0.939693 0   
     length 7.17659   
     axis 0 -0 -20   XYZ
    dof rx ry rz
    limits (-160.0 20.0)
           (-70.0 70.0)
           (-70.0 60.0)
  end
  begin
     id 8 
     name rtibia
     direction -0.34202 -0.939693 0   
     length 6.36669   
     axis 0 -0 -20   XYZ
    dof rx
    limits (-10.0 170.0)
 end
 begin
     id 9 
     name rfoot
     direction -0.137064 -0.37658 0.916188   
     length 2.22351  
     axis -90 1.13533e-015 -20   XYZ
    dof rx rz
    limits (-45.0 90.0)
           (-20.0 70.0)
  end
  begin
     id 10 
     name rtoes
     direction -0.000784077 -0.00289101 0.999996   
     length 1.09522   
     axis -90 1.13533e-015 -20   XYZ
    dof rx
    limits (-90.0 20.0)
  end
  begin
     id 11 
     name lowerback
     direction -0.0176242 0.984912 -0.172157   
     length 1.65301   
     axis 0 -0 0   XYZ
    dof rx ry rz
    limits (-20.0 45.0)
           (-30.0 30.0)
           (-30.0 30.0)
  end
  begin
     id 12 
     name upperback
     direction -0.00218128 0.998776 -0.0494072   
     length 1.67776   
     axis 0 -0 0   XYZ
    dof rx ry rz
    limits (-20.0 45.0)
           (-30.0 30.0)
           (-30.0 30.0)
  end
  begin
     id 13 
     name thorax
     direction 0.00544186 0.999658 0.0255711   
     length 1.72293   
     axis 0 -0 0   XYZ
    dof rx ry rz
    limits (-20.0 45.0)
           (-30.0 30.0)
           (-30.0 30.0)
  end
  begin
     id 14 
     name lowerneck
     direction -0.105325 0.983841 0.144785   
     length 2.14226   
     axis 0 -0 0   XYZ
    dof rx ry rz
    limits (-20.0 45.0)
           (-30.0 30.0)
           (-30.0 30.0)
  end
  begin
     id 15 
     name upperneck
     direction 0.0547957 0.988053 -0.144041   
     length 2.17508   
     axis 0 -0 0   XYZ
    dof rx ry rz
    limits (-20.0 45.0)
           (-30.0 30.0)
           (-30.0 30.0)
  end
  begin
     id 16
     name head
     direction 0.0247488 0.997534 -0.0656813  
     length 2.20048  
     axis 0 -0 0   XYZ
    dof rx ry rz
    limits (-20.0 45.0)
           (-30.0 30.0)
           (-30.0 30.0)
  end
  begin
     id 17 
     name lclavicle
     direction 0.820559 0.567247 -0.0701026  
     length 4.09615  
     axis 0 -0 0   XYZ
    dof ry rz
    limits (-20.0 10.0)
           (0.0 20.0)
  end
  begin
     id 18 
     name lhumerus
     direction 0.999977 -0.0067566 -9.96392e-005   
     length 4.59333   
     axis -180 -30 -90   XYZ
    dof rx ry rz
    limits (-60.0 90.0)
           (-90.0 90.0)
           (-90.0 90.0)
  end
  begin
     id 19
     name lradius
     direction 1 -4.48982e-011 -2.53425e-027   
     length 2.81151   
     axis -180 -30 -90   XYZ
    dof rx
    limits (-10.0 170.0)
  end
  begin
     id 20
     name lwrist
     direction 1 -4.48939e-011 -7.39254e-028   
     length 1.40576   
     axis 2.56395e-016 90 90   XYZ
    dof ry
    limits (-180.0 0.0)
 end
  begin
     id 21 
     name lhand
     direction 1 -4.48939e-011 -1.47851e-027   
     length 0.895651   
     axis 9.43423e-016 90 90   XYZ
    dof rx rz
    limits (-90.0 90.0)
           (-45.0 45.0)
  end
  begin
     id 22 
     name lfingers
     direction 1 -4.48978e-011 -2.95702e-027   
     length 0.722097   
     axis 1.88685e-015 90 90   XYZ
    dof rx
    limits (0.0 90.0)
  end
  begin
     id 23
     name lthumb
     direction 0.707107 -6.34931e-011 0.707107   
     length 1.03679   
     axis -90 45 -9.86935e-015   XYZ
    dof rx rz
    limits (-45.0 45.0)
           (-45.0 45.0)
  end
  begin
     id 24 
     name rclavicle
     direction -0.831414 0.553102 -0.0531864   
     length 4.24872  
     axis 0 -0 0   XYZ 
    dof ry rz
    limits (-10.0 20.0)
           (-20.0 0.0)
  end
  begin
     id 25 
     name rhumerus
     direction -0.999916 -0.000939607 0.0129331  
     length 4.74834   
     axis -180 30 90   XYZ
    dof rx ry rz
    limits (-90.0 60.0)
           (-90.0 90.0)
           (-90.0 90.0)
  end
  begin
     id 26 
     name rradius
     direction -1 -4.48956e-011 -1.31752e-027   
     length 2.79907   
     axis -180 30 90   XYZ
    dof rx
    limits (-10.0 170.0)
  end
  begin
     id 27 
     name rwrist
     direction -1 -4.4897e-011 -7.39254e-028   
     length 1.39954   
     axis 2.56395e-016 -90 -90   XYZ
    dof ry
    limits (-180.0 0.0)
  end
  begin
     id 28
     name rhand
     direction -0.999997 -0.00250697 0.000800838   
     length 0.953304   
     axis 9.43423e-016 -90 -90   XYZ
    dof rx rz
    limits (-90.0 90.0)
           (-45.0 45.0)
  end
  begin
     id 29
     name rfingers
     direction -1 -4.48954e-011 -2.95702e-027   
     length 0.763342   
     axis 1.88685e-015 -90 -90   XYZ
    dof rx
    limits (0.0 90.0)
  end
  begin
     id 30
     name rthumb
     direction -0.709701 -0.00217037 0.7045   
     length 1.10115   
     axis -90 -45 9.86935e-015   XYZ
    dof rx rz
    limits (-45.0 45.0)
           (-45.0 45.0)
  end
:hierarchy
  begin
    root lhipjoint rhipjoint lowerback
    lhipjoint lfemur
    lfemur ltibia
    ltibia lfoot
    lfoot ltoes
    rhipjoint rfemur
    rfemur rtibia
    rtibia rfoot
    rfoot rtoes
    lowerback upperback
    upperback thorax
    thorax lowerneck lclavicle rclavicle
    lowerneck upperneck
    upperneck head
    lclavicle lhumerus
    lhumerus lradius
    lradius lwrist
    lwrist lhand lthumb
    lhand lfingers
    rclavicle rhumerus
    rhumerus rradius
    rradius rwrist
    rwrist rhand rthumb
    rhand rfingers
  end

#!OML:ASF G:\ViconDB\ViconDB\414\test\team2\shane.ASF
:FULLY-SPECIFIED
:DEGREES
100
root 3.89259 22.3291 -17.874 -5.89813 5.90619 -7.30945
lowerback 16.297 -0.656696 4.91162
upperback 1.17878 0.264625 2.73881
thorax -7.88497 0.010813 0.0939926
lowerneck -17.7416 -3.51105 -7.85992
upperneck 19.066 -4.27084 7.0246
head 9.25076 -1.80321 3.16244
rclavicle 2.25745e-014 -4.96962e-016
rhumerus 44.2867 -33.1049 -20.5418
rradius 72.7029
rwrist 13.4172
rhand -40.7051 -15.4114
rfingers 7.12502
rthumb -13.6474 -44.944
lclavicle 2.25745e-014 -4.96962e-016
lhumerus 36.8924 28.8689 10.7659
lradius 61.8898
lwrist 9.23405
lhand -49.229 15.6839
lfingers 7.12502
lthumb -21.8489 44.4704
rfemur 6.29329 -17.0295 16.7278
rtibia 18.3566
rfoot 3.33773 0.11819
rtoes -4.69188
lfemur 2.43668 11.7395 0.493732
ltibia 26.9756
lfoot -5.4565 -17.6223
ltoes -6.16156
101
root 3.8979 22.0413 -17.8919 -5.76386 6.03042 -7.47601
lowerback 16.078 -0.566448 5.06394
upperback 1.3288 0.389821 2.76603
thorax -7.59555 0.073507 0.00539136
lowerneck -17.4871 -3.71295 -7.93759
upperneck 18.8204 -4.54831 7.07592
head 9.14613 -1.93766 3.15354
rclavicle 1.9717e-014 1.85864e-014
rhumerus 43.4516 -33.3254 -20.3766
rradius 74.804
rwrist 16.6701
rhand -39.1094 -18.2538
rfingers 7.12502
rthumb -12.1092 -47.8834
lclavicle 1.9717e-014 1.85864e-014
lhumerus 36.4155 28.1898 11.0224
lradius 64.5125
lwrist 10.0877
lhand -49.7539 16.6247
lfingers 7.12502
lthumb -22.3529 45.3516
rfemur 6.12801 -16.9084 16.8959
rtibia 17.7103
rfoot 4.83264 0.0562932
rtoes -3.94641
lfemur 1.9874 11.9639 0.70226
ltibia 26.828
lfoot -4.82821 -17.2053
ltoes -5.79902
102
root 3.90622 21.7429 -17.9106 -5.58943 6.09561 -7.56304
lowerback 16.0061 -0.488037 5.25207
upperback 1.35223 0.517218 2.72622
thorax -7.52363 0.130022 -0.172285
lowerneck -16.9471 -3.82308 -8.09881
upperneck 18.4712 -4.72241 7.2628
head 8.95164 -2.02159 3.22121
rclavicle -7.97002e-015 -2.27608e-014
rhumerus 41.9908 -32.6158 -19.3597
rradius 76.7243
rwrist 14.6125
rhand -41.7639 -16.9387
rfingers 7.12502
rthumb -14.6677 -46.3999
lclavicle -7.97002e-015 -2.27608e-014
lhumerus 35.3905 27.133 10.8165
lradius 67.465
lwrist 10.903
lhand -50.4117 17.407
lfingers 7.12502
lthumb -22.9842 46.0568
rfemur 5.97153 -16.6667 16.9722
rtibia 16.981
rfoot 6.88505 -0.0334043
rtoes -2.76264
lfemur 1.51328 12.2051 0.76862
ltibia 26.7252
lfoot -3.94577 -16.604
ltoes -5.52353
103
root 3.91755 21.4291 -17.9306 -5.44243 6.16174 -7.65605
lowerback 15.8112 -0.436176 5.43581
upperback 1.48848 0.592837 2.69076
thorax -7.26278 0.167372 -0.332315
lowerneck -16.7015 -4.13969 -8.46308
upperneck 18.3127 -5.16618 7.66751
head 8.91274 -2.21806 3.36303
rclavicle 1.75179e-015 -2.38542e-015
rhumerus 76.3225 -18.6934 -41.4864
rradius 49.5846
rwrist 39.9718
rhand -45.4059 -16.0469
rfingers 7.12502
rthumb -18.1742 -45.2179
lclavicle 1.75179e-015 -2.38542e-015
lhumerus 34.3102 26.0939 10.6033
lradius 70.5443
lwrist 11.356
lhand -50.7436 18.1767
lfingers 7.12502
lthumb -23.3027 46.7864
rfemur 5.8689 -16.2162 17.0561
rtibia 16.202
rfoot 9.22015 -0.496208
rtoes -1.61041
lfemur 0.984732 12.4585 0.828342
ltibia 26.6837
lfoot -2.84301 -15.9573
ltoes -5.35216
104
root 3.92811 21.0971 -17.9518 -5.27343 6.18017 -7.70997
lowerback 15.7236 -0.318874 5.66321
upperback 1.52389 0.770794 2.59198
thorax -7.16349 0.247909 -0.604721
lowerneck -16.2987 -4.33027 -8.64043
upperneck 18.1702 -5.45616 7.88337
head 8.82897 -2.353 3.43073
rclavicle 1.36385e-014 5.0218e-014
rhumerus 73.4867 -18.6968 -39.3147
rradius 52.5537
rwrist 38.462
rhand -46.4173 -14.9317
rfingers 7.12502
rthumb -19.147 -44.0092
lclavicle 1.36385e-014 5.0218e-014
lhumerus 33.5698 24.8962 10.5775
lradius 73.5899
lwrist 11.8692
lhand -50.9774 18.4832
lfingers 7.12502
lthumb -23.5269 47.0644
rfemur 5.78191 -16.1494 17.0014
rtibia 15.3496
rfoot 12.1502 -0.355892
rtoes 0.44132
lfemur 0.46593 12.5804 0.820345
ltibia 26.7068
lfoot -1.34823 -15.0535
ltoes -5.02631
105
root 3.93811 20.7466 -17.9734 -5.12781 6.20516 -7.69224
lowerback 15.6306 -0.199293 5.82547
upperback 1.59516 0.932002 2.42079
thorax -7.0209 0.323201 -0.913466
lowerneck -15.9781 -4.4707 -8.74794
upperneck 18.0636 -5.71784 8.2256
head 8.77265 -2.45566 3.53452
rclavicle 1.09844e-014 3.2551e-015
rhumerus 70.998 -18.5824 -38.3335
rradius 55.518
rwrist 42.4433
rhand -45.2037 -18.6714
rfingers 7.12502
rthumb -17.9796 -47.8603
lclavicle 1.09844e-014 3.2551e-015
lhumerus 32.8055 23.6459 10.4777
lradius 76.7395
lwrist 11.8226
lhand -51.0203 17.9403
lfingers 7.12502
lthumb -23.5681 46.5162
rfemur 5.81067 -15.8954 16.9096
rtibia 14.5821
rfoot 14.5189 0.0711954
rtoes 2.47336
lfemur -0.037024 12.5243 0.700127
ltibia 26.7897
lfoot 0.504015 -13.9869
ltoes -4.58913
106
root 3.94592 20.3888 -17.997 -4.94099 6.20513 -7.63464
lowerback 15.4917 -0.0763283 5.8473
upperback 1.64392 1.07935 2.35919
thorax -6.88113 0.397468 -1.02189
lowerneck -15.6644 -4.64884 -9.06377
upperneck 18.0296 -5.95834 8.45107
head 8.74456 -2.57499 3.63644
rclavicle -1.12841e-014 -2.9445e-014
rhumerus 67.9873 -18.1343 -36.0137
rradius 58.6533
rwrist 43.4061
rhand -46.2426 -21.8605
rfingers 7.12502
rthumb -18.9791 -50.9545
lclavicle -1.12841e-014 -2.9445e-014
lhumerus 31.6285 22.1301 10.1452
lradius 79.8999
lwrist 10.9137
lhand -51.0401 18.218
lfingers 7.12502
lthumb -23.587 46.7915
rfemur 5.71748 -15.1373 16.8671
rtibia 14.1455
rfoot 16.1719 0.075299
rtoes 2.82478
lfemur -0.609316 12.7112 0.588155
ltibia 26.9934
lfoot 2.56284 -13.3158
ltoes -4.29022
107
root 3.95677 20.0134 -18.0272 -4.75632 6.26147 -7.49367
lowerback 15.2934 -0.0068283 5.94837
upperback 1.79564 1.14767 2.14352
thorax -6.59704 0.434919 -1.32107
lowerneck -15.3901 -4.7852 -8.84166
upperneck 17.7568 -6.16898 8.27175
head 8.60971 -2.68422 3.50974
rclavicle -8.35517e-015 -6.01324e-015
rhumerus 65.3746 -17.3558 -34.1886
rradius 61.1396
rwrist 40.7232
rhand -48.8266 -19.4455
rfingers 7.12502
rthumb -21.4625 -48.2765
lclavicle -8.35517e-015 -6.01324e-015
lhumerus 30.6585 20.7158 9.76022
lradius 82.9849
lwrist 10.1064
lhand -51.2458 18.0733
lfingers 7.12502
lthumb -23.7844 46.6212
rfemur 5.45725 -14.371 16.7118
rtibia 14.1798
rfoot 17.9917 0.264759
rtoes 4.1194
lfemur -1.22912 12.6863 0.300927
ltibia 27.3352
lfoot 4.77032 -12.6122
ltoes -3.71322
108
root 3.96454 19.6141 -18.0607 -4.59843 6.21591 -7.26136
lowerback 15.2623 0.0825064 5.8348
upperback 1.90205 1.22556 1.96603
thorax -6.45849 0.478934 -1.46149
lowerneck -15.4705 -4.97343 -9.39671
upperneck 18.0233 -6.43942 8.89676
head 8.78175 -2.78358 3.78486
rclavicle -2.27236e-014 8.34896e-015
rhumerus 63.042 -16.3991 -33.1946
rradius 64.1142
rwrist 43.4394
rhand -48.0728 -23.0712
rfingers 7.12502
rthumb -20.7384 -51.9831
lclavicle -2.27236e-014 8.34896e-015
lhumerus 29.523 19.162 9.32173
lradius 86.0577
lwrist 8.84532
lhand -51.081 17.8814
lfingers 7.12502
lthumb -23.6263 46.4498
rfemur 5.00984 -13.7346 16.4209
rtibia 14.8962
rfoot 19.7595 0.869676
rtoes 4.77206
lfemur -1.80142 13.5256 0.127982
ltibia 27.8729
lfoot 6.62158 -13.2757
ltoes -3.86639
109
root 3.96651 19.1986 -18.1021 -4.46056 6.20775 -6.96908
lowerback 15.2958 0.175492 5.51567
upperback 2.0712 1.28057 1.8416
thorax -6.29572 0.519022 -1.42527
lowerneck -15.5174 -5.07794 -9.55739
upperneck 17.9278 -6.54779 8.9603
head 8.77707 -2.83826 3.81717
rclavicle -1.50952e-014 -1.12313e-014
rhumerus 60.7967 -15.1749 -31.8238
rradius 66.8125
rwrist 42.5583
rhand -47.9836 -23.5045
rfingers 7.12502
rthumb -20.6526 -52.4257
lclavicle -1.50952e-014 -1.12313e-014
lhumerus 28.399 17.5909 8.88105
lradius 88.9651
lwrist 7.6709
lhand -50.7004 16.6548
lfingers 7.12502
lthumb -23.2612 45.2698
rfemur 4.25535 -12.819 16.0755
rtibia 16.3987
rfoot 21.1406 1.23072
rtoes 5.50058
lfemur -2.39277 14.229 -0.0999473
ltibia 28.5595
lfoot 8.44857 -14.2882
ltoes -3.14213
110
root 3.96887 18.7616 -18.1521 -4.31921 6.2754 -6.71965
lowerback 15.3706 0.201847 5.44033
upperback 2.19632 1.28192 1.54915
thorax -6.19703 0.522829 -1.69432
lowerneck -15.4999 -5.0333 -9.17928
upperneck 17.8232 -6.54947 8.85164
head 8.72119 -2.82483 3.71528
rclavicle 1.48592e-014 2.127e-014
rhumerus 58.2962 -14.054 -30.7755
rradius 69.9253
rwrist 42.5033
rhand -48.3867 -22.9241
rfingers 7.12502
rthumb -21.0399 -51.8027
lclavicle 1.48592e-014 2.127e-014
lhumerus 27.4318 15.6996 8.11578
lradius 91.7799
lwrist 6.49762
lhand -50.5564 15.4781
lfingers 7.12502
lthumb -23.123 44.1105
rfemur 3.09476 -12.4444 15.6813
rtibia 18.884
rfoot 21.7125 2.12742
rtoes 5.21319
lfemur -3.16391 14.7544 -0.359562
ltibia 29.504
lfoot 10.1915 -15.6473
ltoes -2.97698
